<mxfile host="app.diagrams.net" agent="Mozilla/5.0 (Macintosh; Intel Mac OS X 10_15_7) AppleWebKit/537.36 (KHTML, like Gecko) Chrome/138.0.0.0 Safari/537.36" scale="1" border="0" version="28.0.0">
  <diagram id="R2lEEEUBdFMjLlhIrx00" name="Page-1">
    <mxGraphModel dx="1215" dy="637" grid="1" gridSize="10" guides="1" tooltips="1" connect="1" arrows="1" fold="1" page="1" pageScale="1" pageWidth="850" pageHeight="1100" math="0" shadow="0" extFonts="Permanent Marker^https://fonts.googleapis.com/css?family=Permanent+Marker">
      <root>
        <mxCell id="0" />
        <mxCell id="1" parent="0" />
        <mxCell id="bF_WzVQbSL983tnFGNi5-1" value="" style="group" parent="1" vertex="1" connectable="0">
          <mxGeometry x="460" y="340" width="200" height="390" as="geometry" />
        </mxCell>
        <mxCell id="bF_WzVQbSL983tnFGNi5-2" value="Notes" style="rounded=0;whiteSpace=wrap;html=1;" parent="bF_WzVQbSL983tnFGNi5-1" vertex="1">
          <mxGeometry x="8" y="35" width="185" height="33" as="geometry" />
        </mxCell>
        <mxCell id="bF_WzVQbSL983tnFGNi5-3" value="" style="rounded=0;whiteSpace=wrap;html=1;" parent="bF_WzVQbSL983tnFGNi5-1" vertex="1">
          <mxGeometry x="8" y="75" width="185" height="33" as="geometry" />
        </mxCell>
        <mxCell id="bF_WzVQbSL983tnFGNi5-4" value="Title" style="text;html=1;align=center;verticalAlign=middle;whiteSpace=wrap;rounded=0;" parent="bF_WzVQbSL983tnFGNi5-1" vertex="1">
          <mxGeometry x="8" y="75" width="35" height="17.5" as="geometry" />
        </mxCell>
        <mxCell id="bF_WzVQbSL983tnFGNi5-5" value="Description preview" style="text;html=1;align=center;verticalAlign=middle;whiteSpace=wrap;rounded=0;" parent="bF_WzVQbSL983tnFGNi5-1" vertex="1">
          <mxGeometry x="8" y="89" width="116" height="17.5" as="geometry" />
        </mxCell>
        <mxCell id="bF_WzVQbSL983tnFGNi5-6" value="Date/Time" style="text;html=1;align=center;verticalAlign=middle;whiteSpace=wrap;rounded=0;" parent="bF_WzVQbSL983tnFGNi5-1" vertex="1">
          <mxGeometry x="145" y="78" width="35" height="17.5" as="geometry" />
        </mxCell>
        <mxCell id="bF_WzVQbSL983tnFGNi5-7" value="" style="shape=image;html=1;verticalAlign=top;verticalLabelPosition=bottom;labelBackgroundColor=#ffffff;imageAspect=0;aspect=fixed;image=https://cdn1.iconfinder.com/data/icons/ionicons-fill-vol-2/512/menu-128.png" parent="bF_WzVQbSL983tnFGNi5-1" vertex="1">
          <mxGeometry x="160.75" y="39.25" width="24.5" height="24.5" as="geometry" />
        </mxCell>
        <mxCell id="bF_WzVQbSL983tnFGNi5-8" value="" style="group" parent="bF_WzVQbSL983tnFGNi5-1" vertex="1" connectable="0">
          <mxGeometry width="200" height="390" as="geometry" />
        </mxCell>
        <mxCell id="bF_WzVQbSL983tnFGNi5-9" value="" style="verticalLabelPosition=bottom;verticalAlign=top;html=1;shadow=0;dashed=0;strokeWidth=1;shape=mxgraph.android.phone2;strokeColor=#c0c0c0;" parent="bF_WzVQbSL983tnFGNi5-8" vertex="1">
          <mxGeometry width="200" height="390" as="geometry" />
        </mxCell>
        <mxCell id="bF_WzVQbSL983tnFGNi5-10" value="" style="strokeWidth=1;shadow=0;dashed=0;align=center;html=1;shape=mxgraph.mockup.forms.rrect;rSize=5;strokeColor=#999999;fillColor=#ffffff;" parent="bF_WzVQbSL983tnFGNi5-1" vertex="1">
          <mxGeometry x="11.5" y="71" width="178" height="197" as="geometry" />
        </mxCell>
        <mxCell id="bF_WzVQbSL983tnFGNi5-11" value="October 2014" style="strokeWidth=1;shadow=0;dashed=0;align=center;html=1;shape=mxgraph.mockup.forms.anchor;fontColor=#999999;" parent="bF_WzVQbSL983tnFGNi5-10" vertex="1">
          <mxGeometry x="33.375" y="9.005714285714285" width="111.25" height="22.514285714285712" as="geometry" />
        </mxCell>
        <mxCell id="bF_WzVQbSL983tnFGNi5-12" value="&lt;" style="strokeWidth=1;shadow=0;dashed=0;align=center;html=1;shape=mxgraph.mockup.forms.rrect;rSize=4;strokeColor=#999999;fontColor=#008cff;fontSize=19;fontStyle=1;" parent="bF_WzVQbSL983tnFGNi5-10" vertex="1">
          <mxGeometry x="8.9" y="9.005714285714285" width="27.8125" height="22.514285714285712" as="geometry" />
        </mxCell>
        <mxCell id="bF_WzVQbSL983tnFGNi5-13" value="&gt;" style="strokeWidth=1;shadow=0;dashed=0;align=center;html=1;shape=mxgraph.mockup.forms.rrect;rSize=4;strokeColor=#999999;fontColor=#008cff;fontSize=19;fontStyle=1;" parent="bF_WzVQbSL983tnFGNi5-10" vertex="1">
          <mxGeometry x="141.2875" y="9.005714285714285" width="27.8125" height="22.514285714285712" as="geometry" />
        </mxCell>
        <mxCell id="bF_WzVQbSL983tnFGNi5-14" value="Mo" style="strokeWidth=1;shadow=0;dashed=0;align=center;html=1;shape=mxgraph.mockup.forms.anchor;fontColor=#999999;" parent="bF_WzVQbSL983tnFGNi5-10" vertex="1">
          <mxGeometry x="11.125" y="31.52" width="22.25" height="22.514285714285712" as="geometry" />
        </mxCell>
        <mxCell id="bF_WzVQbSL983tnFGNi5-15" value="Tu" style="strokeWidth=1;shadow=0;dashed=0;align=center;html=1;shape=mxgraph.mockup.forms.anchor;fontColor=#999999;" parent="bF_WzVQbSL983tnFGNi5-10" vertex="1">
          <mxGeometry x="33.375" y="31.52" width="22.25" height="22.514285714285712" as="geometry" />
        </mxCell>
        <mxCell id="bF_WzVQbSL983tnFGNi5-16" value="We" style="strokeWidth=1;shadow=0;dashed=0;align=center;html=1;shape=mxgraph.mockup.forms.anchor;fontColor=#999999;" parent="bF_WzVQbSL983tnFGNi5-10" vertex="1">
          <mxGeometry x="55.625" y="31.52" width="22.25" height="22.514285714285712" as="geometry" />
        </mxCell>
        <mxCell id="bF_WzVQbSL983tnFGNi5-17" value="Th" style="strokeWidth=1;shadow=0;dashed=0;align=center;html=1;shape=mxgraph.mockup.forms.anchor;fontColor=#999999;" parent="bF_WzVQbSL983tnFGNi5-10" vertex="1">
          <mxGeometry x="77.875" y="31.52" width="22.25" height="22.514285714285712" as="geometry" />
        </mxCell>
        <mxCell id="bF_WzVQbSL983tnFGNi5-18" value="Fr" style="strokeWidth=1;shadow=0;dashed=0;align=center;html=1;shape=mxgraph.mockup.forms.anchor;fontColor=#999999;" parent="bF_WzVQbSL983tnFGNi5-10" vertex="1">
          <mxGeometry x="100.125" y="31.52" width="22.25" height="22.514285714285712" as="geometry" />
        </mxCell>
        <mxCell id="bF_WzVQbSL983tnFGNi5-19" value="Sa" style="strokeWidth=1;shadow=0;dashed=0;align=center;html=1;shape=mxgraph.mockup.forms.anchor;fontColor=#999999;" parent="bF_WzVQbSL983tnFGNi5-10" vertex="1">
          <mxGeometry x="122" y="31.52" width="22.63" height="22.89" as="geometry" />
        </mxCell>
        <mxCell id="bF_WzVQbSL983tnFGNi5-20" value="Su" style="strokeWidth=1;shadow=0;dashed=0;align=center;html=1;shape=mxgraph.mockup.forms.anchor;fontColor=#999999;" parent="bF_WzVQbSL983tnFGNi5-10" vertex="1">
          <mxGeometry x="144.625" y="31.52" width="22.25" height="22.514285714285712" as="geometry" />
        </mxCell>
        <mxCell id="bF_WzVQbSL983tnFGNi5-21" value="1" style="strokeWidth=1;shadow=0;dashed=0;align=center;html=1;shape=mxgraph.mockup.forms.rrect;rSize=0;strokeColor=#999999;fontColor=#999999;" parent="bF_WzVQbSL983tnFGNi5-10" vertex="1">
          <mxGeometry x="11.125" y="54.034285714285716" width="22.25" height="22.514285714285712" as="geometry" />
        </mxCell>
        <mxCell id="bF_WzVQbSL983tnFGNi5-22" value="2" style="strokeWidth=1;shadow=0;dashed=0;align=center;html=1;shape=mxgraph.mockup.forms.rrect;rSize=0;strokeColor=#999999;fontColor=#999999;" parent="bF_WzVQbSL983tnFGNi5-10" vertex="1">
          <mxGeometry x="33.375" y="54.034285714285716" width="22.25" height="22.514285714285712" as="geometry" />
        </mxCell>
        <mxCell id="bF_WzVQbSL983tnFGNi5-23" value="3" style="strokeWidth=1;shadow=0;dashed=0;align=center;html=1;shape=mxgraph.mockup.forms.rrect;rSize=0;strokeColor=#999999;fontColor=#999999;" parent="bF_WzVQbSL983tnFGNi5-10" vertex="1">
          <mxGeometry x="55.625" y="54.034285714285716" width="22.25" height="22.514285714285712" as="geometry" />
        </mxCell>
        <mxCell id="bF_WzVQbSL983tnFGNi5-24" value="4" style="strokeWidth=1;shadow=0;dashed=0;align=center;html=1;shape=mxgraph.mockup.forms.rrect;rSize=0;strokeColor=#999999;fontColor=#999999;" parent="bF_WzVQbSL983tnFGNi5-10" vertex="1">
          <mxGeometry x="77.875" y="54.034285714285716" width="22.25" height="22.514285714285712" as="geometry" />
        </mxCell>
        <mxCell id="bF_WzVQbSL983tnFGNi5-25" value="5" style="strokeWidth=1;shadow=0;dashed=0;align=center;html=1;shape=mxgraph.mockup.forms.rrect;rSize=0;strokeColor=#999999;fontColor=#999999;" parent="bF_WzVQbSL983tnFGNi5-10" vertex="1">
          <mxGeometry x="100.125" y="54.034285714285716" width="22.25" height="22.514285714285712" as="geometry" />
        </mxCell>
        <mxCell id="bF_WzVQbSL983tnFGNi5-26" value="6" style="strokeWidth=1;shadow=0;dashed=0;align=center;html=1;shape=mxgraph.mockup.forms.rrect;rSize=0;strokeColor=#999999;fontColor=#999999;" parent="bF_WzVQbSL983tnFGNi5-10" vertex="1">
          <mxGeometry x="122.375" y="54.034285714285716" width="22.25" height="22.514285714285712" as="geometry" />
        </mxCell>
        <mxCell id="bF_WzVQbSL983tnFGNi5-27" value="7" style="strokeWidth=1;shadow=0;dashed=0;align=center;html=1;shape=mxgraph.mockup.forms.rrect;rSize=0;strokeColor=#999999;fontColor=#999999;" parent="bF_WzVQbSL983tnFGNi5-10" vertex="1">
          <mxGeometry x="144.625" y="54.034285714285716" width="22.25" height="22.514285714285712" as="geometry" />
        </mxCell>
        <mxCell id="bF_WzVQbSL983tnFGNi5-28" value="8" style="strokeWidth=1;shadow=0;dashed=0;align=center;html=1;shape=mxgraph.mockup.forms.rrect;rSize=0;strokeColor=#999999;fontColor=#999999;" parent="bF_WzVQbSL983tnFGNi5-10" vertex="1">
          <mxGeometry x="11.125" y="76.54857142857142" width="22.25" height="22.514285714285712" as="geometry" />
        </mxCell>
        <mxCell id="bF_WzVQbSL983tnFGNi5-29" value="9" style="strokeWidth=1;shadow=0;dashed=0;align=center;html=1;shape=mxgraph.mockup.forms.rrect;rSize=0;strokeColor=#999999;fontColor=#999999;" parent="bF_WzVQbSL983tnFGNi5-10" vertex="1">
          <mxGeometry x="33" y="76.55" width="22.63" height="22.89" as="geometry" />
        </mxCell>
        <mxCell id="bF_WzVQbSL983tnFGNi5-30" value="10" style="strokeWidth=1;shadow=0;dashed=0;align=center;html=1;shape=mxgraph.mockup.forms.rrect;rSize=0;strokeColor=#999999;fontColor=#999999;" parent="bF_WzVQbSL983tnFGNi5-10" vertex="1">
          <mxGeometry x="55.625" y="76.54857142857142" width="22.25" height="22.514285714285712" as="geometry" />
        </mxCell>
        <mxCell id="bF_WzVQbSL983tnFGNi5-31" value="11" style="strokeWidth=1;shadow=0;dashed=0;align=center;html=1;shape=mxgraph.mockup.forms.rrect;rSize=0;strokeColor=#999999;fontColor=#999999;" parent="bF_WzVQbSL983tnFGNi5-10" vertex="1">
          <mxGeometry x="77.875" y="76.54857142857142" width="22.25" height="22.514285714285712" as="geometry" />
        </mxCell>
        <mxCell id="bF_WzVQbSL983tnFGNi5-32" value="12" style="strokeWidth=1;shadow=0;dashed=0;align=center;html=1;shape=mxgraph.mockup.forms.rrect;rSize=0;strokeColor=#999999;fontColor=#999999;" parent="bF_WzVQbSL983tnFGNi5-10" vertex="1">
          <mxGeometry x="100.125" y="76.54857142857142" width="22.25" height="22.514285714285712" as="geometry" />
        </mxCell>
        <mxCell id="bF_WzVQbSL983tnFGNi5-33" value="13" style="strokeWidth=1;shadow=0;dashed=0;align=center;html=1;shape=mxgraph.mockup.forms.rrect;rSize=0;strokeColor=#999999;fontColor=#999999;" parent="bF_WzVQbSL983tnFGNi5-10" vertex="1">
          <mxGeometry x="122.375" y="76.54857142857142" width="22.25" height="22.514285714285712" as="geometry" />
        </mxCell>
        <mxCell id="bF_WzVQbSL983tnFGNi5-34" value="14" style="strokeWidth=1;shadow=0;dashed=0;align=center;html=1;shape=mxgraph.mockup.forms.rrect;rSize=0;strokeColor=#999999;fontColor=#999999;" parent="bF_WzVQbSL983tnFGNi5-10" vertex="1">
          <mxGeometry x="144.625" y="76.54857142857142" width="22.25" height="22.514285714285712" as="geometry" />
        </mxCell>
        <mxCell id="bF_WzVQbSL983tnFGNi5-35" value="15" style="strokeWidth=1;shadow=0;dashed=0;align=center;html=1;shape=mxgraph.mockup.forms.rrect;rSize=0;strokeColor=#999999;fontColor=#999999;" parent="bF_WzVQbSL983tnFGNi5-10" vertex="1">
          <mxGeometry x="11.125" y="99.06285714285714" width="22.25" height="22.514285714285712" as="geometry" />
        </mxCell>
        <mxCell id="bF_WzVQbSL983tnFGNi5-36" value="16" style="strokeWidth=1;shadow=0;dashed=0;align=center;html=1;shape=mxgraph.mockup.forms.rrect;rSize=0;strokeColor=#999999;fontColor=#999999;" parent="bF_WzVQbSL983tnFGNi5-10" vertex="1">
          <mxGeometry x="33.375" y="99.06285714285714" width="22.25" height="22.514285714285712" as="geometry" />
        </mxCell>
        <mxCell id="bF_WzVQbSL983tnFGNi5-37" value="17" style="strokeWidth=1;shadow=0;dashed=0;align=center;html=1;shape=mxgraph.mockup.forms.rrect;rSize=0;strokeColor=#999999;fontColor=#999999;" parent="bF_WzVQbSL983tnFGNi5-10" vertex="1">
          <mxGeometry x="55.625" y="99.06285714285714" width="22.25" height="22.514285714285712" as="geometry" />
        </mxCell>
        <mxCell id="bF_WzVQbSL983tnFGNi5-38" value="18" style="strokeWidth=1;shadow=0;dashed=0;align=center;html=1;shape=mxgraph.mockup.forms.rrect;rSize=0;strokeColor=#999999;fontColor=#999999;" parent="bF_WzVQbSL983tnFGNi5-10" vertex="1">
          <mxGeometry x="77.875" y="99.06285714285714" width="22.25" height="22.514285714285712" as="geometry" />
        </mxCell>
        <mxCell id="bF_WzVQbSL983tnFGNi5-39" value="19" style="strokeWidth=1;shadow=0;dashed=0;align=center;html=1;shape=mxgraph.mockup.forms.rrect;rSize=0;strokeColor=#999999;fontColor=#999999;" parent="bF_WzVQbSL983tnFGNi5-10" vertex="1">
          <mxGeometry x="100.125" y="99.06285714285714" width="22.25" height="22.514285714285712" as="geometry" />
        </mxCell>
        <mxCell id="bF_WzVQbSL983tnFGNi5-40" value="20" style="strokeWidth=1;shadow=0;dashed=0;align=center;html=1;shape=mxgraph.mockup.forms.rrect;rSize=0;strokeColor=#999999;fontColor=#999999;" parent="bF_WzVQbSL983tnFGNi5-10" vertex="1">
          <mxGeometry x="122.375" y="99.06285714285714" width="22.25" height="22.514285714285712" as="geometry" />
        </mxCell>
        <mxCell id="bF_WzVQbSL983tnFGNi5-41" value="21" style="strokeWidth=1;shadow=0;dashed=0;align=center;html=1;shape=mxgraph.mockup.forms.rrect;rSize=0;strokeColor=#999999;fontColor=#999999;" parent="bF_WzVQbSL983tnFGNi5-10" vertex="1">
          <mxGeometry x="144.625" y="99.06285714285714" width="22.25" height="22.514285714285712" as="geometry" />
        </mxCell>
        <mxCell id="bF_WzVQbSL983tnFGNi5-42" value="22" style="strokeWidth=1;shadow=0;dashed=0;align=center;html=1;shape=mxgraph.mockup.forms.rrect;rSize=0;strokeColor=#999999;fontColor=#999999;" parent="bF_WzVQbSL983tnFGNi5-10" vertex="1">
          <mxGeometry x="11.125" y="121.57714285714285" width="22.25" height="22.514285714285712" as="geometry" />
        </mxCell>
        <mxCell id="bF_WzVQbSL983tnFGNi5-43" value="23" style="strokeWidth=1;shadow=0;dashed=0;align=center;html=1;shape=mxgraph.mockup.forms.rrect;rSize=0;strokeColor=#999999;fontColor=#999999;" parent="bF_WzVQbSL983tnFGNi5-10" vertex="1">
          <mxGeometry x="33.375" y="121.57714285714285" width="22.25" height="22.514285714285712" as="geometry" />
        </mxCell>
        <mxCell id="bF_WzVQbSL983tnFGNi5-44" value="25" style="strokeWidth=1;shadow=0;dashed=0;align=center;html=1;shape=mxgraph.mockup.forms.rrect;rSize=0;strokeColor=#999999;fontColor=#999999;" parent="bF_WzVQbSL983tnFGNi5-10" vertex="1">
          <mxGeometry x="77.875" y="121.57714285714285" width="22.25" height="22.514285714285712" as="geometry" />
        </mxCell>
        <mxCell id="bF_WzVQbSL983tnFGNi5-45" value="26" style="strokeWidth=1;shadow=0;dashed=0;align=center;html=1;shape=mxgraph.mockup.forms.rrect;rSize=0;strokeColor=#999999;fontColor=#999999;" parent="bF_WzVQbSL983tnFGNi5-10" vertex="1">
          <mxGeometry x="100.125" y="121.57714285714285" width="22.25" height="22.514285714285712" as="geometry" />
        </mxCell>
        <mxCell id="bF_WzVQbSL983tnFGNi5-46" value="27" style="strokeWidth=1;shadow=0;dashed=0;align=center;html=1;shape=mxgraph.mockup.forms.rrect;rSize=0;strokeColor=#999999;fontColor=#999999;" parent="bF_WzVQbSL983tnFGNi5-10" vertex="1">
          <mxGeometry x="122.375" y="121.57714285714285" width="22.25" height="22.514285714285712" as="geometry" />
        </mxCell>
        <mxCell id="bF_WzVQbSL983tnFGNi5-47" value="28" style="strokeWidth=1;shadow=0;dashed=0;align=center;html=1;shape=mxgraph.mockup.forms.rrect;rSize=0;strokeColor=#999999;fontColor=#999999;" parent="bF_WzVQbSL983tnFGNi5-10" vertex="1">
          <mxGeometry x="144.625" y="121.57714285714285" width="22.25" height="22.514285714285712" as="geometry" />
        </mxCell>
        <mxCell id="bF_WzVQbSL983tnFGNi5-48" value="29" style="strokeWidth=1;shadow=0;dashed=0;align=center;html=1;shape=mxgraph.mockup.forms.rrect;rSize=0;strokeColor=#999999;fontColor=#999999;" parent="bF_WzVQbSL983tnFGNi5-10" vertex="1">
          <mxGeometry x="11.13" y="144.09" width="21.88" height="22.13" as="geometry" />
        </mxCell>
        <mxCell id="bF_WzVQbSL983tnFGNi5-49" value="30" style="strokeWidth=1;shadow=0;dashed=0;align=center;html=1;shape=mxgraph.mockup.forms.rrect;rSize=0;strokeColor=#999999;fontColor=#999999;" parent="bF_WzVQbSL983tnFGNi5-10" vertex="1">
          <mxGeometry x="33.375" y="144.09142857142857" width="22.25" height="22.514285714285712" as="geometry" />
        </mxCell>
        <mxCell id="bF_WzVQbSL983tnFGNi5-50" value="31" style="strokeWidth=1;shadow=0;dashed=0;align=center;html=1;shape=mxgraph.mockup.forms.rrect;rSize=0;strokeColor=#999999;fontColor=#999999;" parent="bF_WzVQbSL983tnFGNi5-10" vertex="1">
          <mxGeometry x="55.625" y="144.09142857142857" width="22.25" height="22.514285714285712" as="geometry" />
        </mxCell>
        <mxCell id="bF_WzVQbSL983tnFGNi5-51" value="1" style="strokeWidth=1;shadow=0;dashed=0;align=center;html=1;shape=mxgraph.mockup.forms.rrect;rSize=0;strokeColor=#999999;fontColor=#999999;fillColor=#ddeeff;" parent="bF_WzVQbSL983tnFGNi5-10" vertex="1">
          <mxGeometry x="77.875" y="144.09142857142857" width="22.25" height="22.514285714285712" as="geometry" />
        </mxCell>
        <mxCell id="bF_WzVQbSL983tnFGNi5-52" value="2" style="strokeWidth=1;shadow=0;dashed=0;align=center;html=1;shape=mxgraph.mockup.forms.rrect;rSize=0;strokeColor=#999999;fontColor=#999999;fillColor=#ddeeff;" parent="bF_WzVQbSL983tnFGNi5-10" vertex="1">
          <mxGeometry x="100.125" y="144.09142857142857" width="22.25" height="22.514285714285712" as="geometry" />
        </mxCell>
        <mxCell id="bF_WzVQbSL983tnFGNi5-53" value="3" style="strokeWidth=1;shadow=0;dashed=0;align=center;html=1;shape=mxgraph.mockup.forms.rrect;rSize=0;strokeColor=#999999;fontColor=#999999;fillColor=#ddeeff;" parent="bF_WzVQbSL983tnFGNi5-10" vertex="1">
          <mxGeometry x="122.375" y="144.09142857142857" width="22.25" height="22.514285714285712" as="geometry" />
        </mxCell>
        <mxCell id="bF_WzVQbSL983tnFGNi5-54" value="4" style="strokeWidth=1;shadow=0;dashed=0;align=center;html=1;shape=mxgraph.mockup.forms.rrect;rSize=0;strokeColor=#999999;fontColor=#999999;fillColor=#ddeeff;" parent="bF_WzVQbSL983tnFGNi5-10" vertex="1">
          <mxGeometry x="144.625" y="144.09142857142857" width="22.25" height="22.514285714285712" as="geometry" />
        </mxCell>
        <mxCell id="bF_WzVQbSL983tnFGNi5-55" value="5" style="strokeWidth=1;shadow=0;dashed=0;align=center;html=1;shape=mxgraph.mockup.forms.rrect;rSize=0;strokeColor=#999999;fontColor=#999999;fillColor=#ddeeff;" parent="bF_WzVQbSL983tnFGNi5-10" vertex="1">
          <mxGeometry x="11.125" y="166.60571428571427" width="22.25" height="22.514285714285712" as="geometry" />
        </mxCell>
        <mxCell id="bF_WzVQbSL983tnFGNi5-56" value="6" style="strokeWidth=1;shadow=0;dashed=0;align=center;html=1;shape=mxgraph.mockup.forms.rrect;rSize=0;strokeColor=#999999;fontColor=#999999;fillColor=#ddeeff;" parent="bF_WzVQbSL983tnFGNi5-10" vertex="1">
          <mxGeometry x="33.375" y="166.60571428571427" width="22.25" height="22.514285714285712" as="geometry" />
        </mxCell>
        <mxCell id="bF_WzVQbSL983tnFGNi5-57" value="7" style="strokeWidth=1;shadow=0;dashed=0;align=center;html=1;shape=mxgraph.mockup.forms.rrect;rSize=0;strokeColor=#999999;fontColor=#999999;fillColor=#ddeeff;" parent="bF_WzVQbSL983tnFGNi5-10" vertex="1">
          <mxGeometry x="55.625" y="166.60571428571427" width="22.25" height="22.514285714285712" as="geometry" />
        </mxCell>
        <mxCell id="bF_WzVQbSL983tnFGNi5-58" value="8" style="strokeWidth=1;shadow=0;dashed=0;align=center;html=1;shape=mxgraph.mockup.forms.rrect;rSize=0;strokeColor=#999999;fontColor=#999999;fillColor=#ddeeff;" parent="bF_WzVQbSL983tnFGNi5-10" vertex="1">
          <mxGeometry x="77.875" y="166.60571428571427" width="22.25" height="22.514285714285712" as="geometry" />
        </mxCell>
        <mxCell id="bF_WzVQbSL983tnFGNi5-59" value="9" style="strokeWidth=1;shadow=0;dashed=0;align=center;html=1;shape=mxgraph.mockup.forms.rrect;rSize=0;strokeColor=#999999;fontColor=#999999;fillColor=#ddeeff;" parent="bF_WzVQbSL983tnFGNi5-10" vertex="1">
          <mxGeometry x="100.125" y="166.60571428571427" width="22.25" height="22.514285714285712" as="geometry" />
        </mxCell>
        <mxCell id="bF_WzVQbSL983tnFGNi5-60" value="10" style="strokeWidth=1;shadow=0;dashed=0;align=center;html=1;shape=mxgraph.mockup.forms.rrect;rSize=0;strokeColor=#999999;fontColor=#999999;fillColor=#ddeeff;" parent="bF_WzVQbSL983tnFGNi5-10" vertex="1">
          <mxGeometry x="122.38" y="167" width="21.86" height="22.12" as="geometry" />
        </mxCell>
        <mxCell id="bF_WzVQbSL983tnFGNi5-61" value="11" style="strokeWidth=1;shadow=0;dashed=0;align=center;html=1;shape=mxgraph.mockup.forms.rrect;rSize=0;strokeColor=#999999;fontColor=#999999;fillColor=#ddeeff;" parent="bF_WzVQbSL983tnFGNi5-10" vertex="1">
          <mxGeometry x="144.625" y="166.60571428571427" width="22.25" height="22.514285714285712" as="geometry" />
        </mxCell>
        <mxCell id="bF_WzVQbSL983tnFGNi5-62" value="24" style="strokeWidth=1;shadow=0;dashed=0;align=center;html=1;shape=mxgraph.mockup.forms.rrect;rSize=0;strokeColor=#ff0000;fontColor=#ffffff;strokeWidth=2;fillColor=#008cff;" parent="bF_WzVQbSL983tnFGNi5-10" vertex="1">
          <mxGeometry x="56" y="121.58" width="21.88" height="22.42" as="geometry" />
        </mxCell>
        <mxCell id="bF_WzVQbSL983tnFGNi5-63" value="" style="group" parent="bF_WzVQbSL983tnFGNi5-1" vertex="1" connectable="0">
          <mxGeometry x="153" y="39" width="32" height="32" as="geometry" />
        </mxCell>
        <mxCell id="bF_WzVQbSL983tnFGNi5-64" value="" style="whiteSpace=wrap;html=1;aspect=fixed;" parent="bF_WzVQbSL983tnFGNi5-63" vertex="1">
          <mxGeometry width="32" height="32" as="geometry" />
        </mxCell>
        <mxCell id="bF_WzVQbSL983tnFGNi5-65" value="" style="shape=image;html=1;verticalAlign=top;verticalLabelPosition=bottom;labelBackgroundColor=#ffffff;imageAspect=0;aspect=fixed;image=https://cdn1.iconfinder.com/data/icons/nuvola2/48x48/actions/button_cancel.png" parent="bF_WzVQbSL983tnFGNi5-63" vertex="1">
          <mxGeometry x="2.5" y="2.5" width="27" height="27" as="geometry" />
        </mxCell>
        <mxCell id="bF_WzVQbSL983tnFGNi5-66" value="" style="group" parent="1" vertex="1" connectable="0">
          <mxGeometry x="776" y="340" width="200" height="390" as="geometry" />
        </mxCell>
        <mxCell id="bF_WzVQbSL983tnFGNi5-67" value="(Date) Notes" style="rounded=0;whiteSpace=wrap;html=1;" parent="bF_WzVQbSL983tnFGNi5-66" vertex="1">
          <mxGeometry x="8" y="35" width="185" height="33" as="geometry" />
        </mxCell>
        <mxCell id="bF_WzVQbSL983tnFGNi5-68" value="" style="shape=ellipse;dashed=0;strokeColor=none;shadow=1;fontSize=13;align=center;verticalAlign=top;labelPosition=center;verticalLabelPosition=bottom;html=1;aspect=fixed;" parent="bF_WzVQbSL983tnFGNi5-66" vertex="1">
          <mxGeometry x="153" y="311" width="40" height="40" as="geometry" />
        </mxCell>
        <mxCell id="bF_WzVQbSL983tnFGNi5-69" value="" style="dashed=0;html=1;shape=mxgraph.gmdl.plus;strokeColor=#737373;strokeWidth=2;shadow=0;sketch=0;html=1;labelPosition=center;verticalLabelPosition=bottom;align=center;verticalAlign=top;" parent="bF_WzVQbSL983tnFGNi5-68" vertex="1">
          <mxGeometry x="12" y="12" width="16" height="16" as="geometry" />
        </mxCell>
        <mxCell id="bF_WzVQbSL983tnFGNi5-70" value="" style="rounded=0;whiteSpace=wrap;html=1;" parent="bF_WzVQbSL983tnFGNi5-66" vertex="1">
          <mxGeometry x="8" y="75" width="185" height="33" as="geometry" />
        </mxCell>
        <mxCell id="bF_WzVQbSL983tnFGNi5-71" value="Title" style="text;html=1;align=center;verticalAlign=middle;whiteSpace=wrap;rounded=0;" parent="bF_WzVQbSL983tnFGNi5-66" vertex="1">
          <mxGeometry x="8" y="75" width="35" height="17.5" as="geometry" />
        </mxCell>
        <mxCell id="bF_WzVQbSL983tnFGNi5-72" value="Description preview" style="text;html=1;align=center;verticalAlign=middle;whiteSpace=wrap;rounded=0;" parent="bF_WzVQbSL983tnFGNi5-66" vertex="1">
          <mxGeometry x="8" y="89" width="116" height="17.5" as="geometry" />
        </mxCell>
        <mxCell id="bF_WzVQbSL983tnFGNi5-73" value="" style="shape=image;html=1;verticalAlign=top;verticalLabelPosition=bottom;labelBackgroundColor=#ffffff;imageAspect=0;aspect=fixed;image=https://cdn1.iconfinder.com/data/icons/ionicons-fill-vol-2/512/menu-128.png" parent="bF_WzVQbSL983tnFGNi5-66" vertex="1">
          <mxGeometry x="160.75" y="39.25" width="24.5" height="24.5" as="geometry" />
        </mxCell>
        <mxCell id="bF_WzVQbSL983tnFGNi5-74" value="" style="group" parent="bF_WzVQbSL983tnFGNi5-66" vertex="1" connectable="0">
          <mxGeometry width="200" height="390" as="geometry" />
        </mxCell>
        <mxCell id="bF_WzVQbSL983tnFGNi5-75" value="" style="verticalLabelPosition=bottom;verticalAlign=top;html=1;shadow=0;dashed=0;strokeWidth=1;shape=mxgraph.android.phone2;strokeColor=#c0c0c0;" parent="bF_WzVQbSL983tnFGNi5-74" vertex="1">
          <mxGeometry width="200" height="390" as="geometry" />
        </mxCell>
        <mxCell id="bF_WzVQbSL983tnFGNi5-76" value="&lt;span style=&quot;color: rgba(0, 0, 0, 0); font-family: monospace; font-size: 0px; text-align: start;&quot;&gt;%3CmxGraphModel%3E%3Croot%3E%3CmxCell%20id%3D%220%22%2F%3E%3CmxCell%20id%3D%221%22%20parent%3D%220%22%2F%3E%3CmxCell%20id%3D%222%22%20value%3D%22%22%20style%3D%22group%22%20vertex%3D%221%22%20connectable%3D%220%22%20parent%3D%221%22%3E%3CmxGeometry%20x%3D%2253%22%20y%3D%22-101%22%20width%3D%22200%22%20height%3D%22390%22%20as%3D%22geometry%22%2F%3E%3C%2FmxCell%3E%3CmxCell%20id%3D%223%22%20value%3D%22%22%20style%3D%22verticalLabelPosition%3Dbottom%3BverticalAlign%3Dtop%3Bhtml%3D1%3Bshadow%3D0%3Bdashed%3D0%3BstrokeWidth%3D1%3Bshape%3Dmxgraph.android.phone2%3BstrokeColor%3D%23c0c0c0%3B%22%20vertex%3D%221%22%20parent%3D%222%22%3E%3CmxGeometry%20width%3D%22200%22%20height%3D%22390%22%20as%3D%22geometry%22%2F%3E%3C%2FmxCell%3E%3CmxCell%20id%3D%224%22%20value%3D%22%22%20style%3D%22sketch%3D0%3Baspect%3Dfixed%3BpointerEvents%3D1%3Bshadow%3D0%3Bdashed%3D0%3Bhtml%3D1%3BstrokeColor%3Dnone%3BlabelPosition%3Dcenter%3BverticalLabelPosition%3Dbottom%3BverticalAlign%3Dtop%3Balign%3Dcenter%3BfillColor%3D%2300188D%3Bshape%3Dmxgraph.mscae.enterprise.calendar%22%20vertex%3D%221%22%20parent%3D%222%22%3E%3CmxGeometry%20x%3D%2216%22%20y%3D%2242%22%20width%3D%2223.17%22%20height%3D%2219%22%20as%3D%22geometry%22%2F%3E%3C%2FmxCell%3E%3C%2Froot%3E%3C%2FmxGraphModel%3E&lt;/span&gt;" style="sketch=0;aspect=fixed;pointerEvents=1;shadow=0;dashed=0;html=1;strokeColor=none;labelPosition=center;verticalLabelPosition=bottom;verticalAlign=top;align=center;fillColor=#00188D;shape=mxgraph.mscae.enterprise.calendar" parent="bF_WzVQbSL983tnFGNi5-74" vertex="1">
          <mxGeometry x="16" y="42" width="23.17" height="19" as="geometry" />
        </mxCell>
        <mxCell id="bF_WzVQbSL983tnFGNi5-77" value="Time" style="text;html=1;align=center;verticalAlign=middle;whiteSpace=wrap;rounded=0;" parent="bF_WzVQbSL983tnFGNi5-74" vertex="1">
          <mxGeometry x="145" y="82" width="35" height="17.5" as="geometry" />
        </mxCell>
        <mxCell id="bF_WzVQbSL983tnFGNi5-78" value="" style="group" parent="1" vertex="1" connectable="0">
          <mxGeometry x="460" y="807" width="200" height="390" as="geometry" />
        </mxCell>
        <mxCell id="bF_WzVQbSL983tnFGNi5-79" value="" style="verticalLabelPosition=bottom;verticalAlign=top;html=1;shadow=0;dashed=0;strokeWidth=1;shape=mxgraph.android.phone2;strokeColor=#c0c0c0;" parent="bF_WzVQbSL983tnFGNi5-78" vertex="1">
          <mxGeometry width="200" height="390" as="geometry" />
        </mxCell>
        <mxCell id="bF_WzVQbSL983tnFGNi5-80" value="Notes" style="rounded=0;whiteSpace=wrap;html=1;" parent="bF_WzVQbSL983tnFGNi5-78" vertex="1">
          <mxGeometry x="8" y="35" width="185" height="33" as="geometry" />
        </mxCell>
        <mxCell id="bF_WzVQbSL983tnFGNi5-81" value="" style="shape=ellipse;dashed=0;strokeColor=none;shadow=1;fontSize=13;align=center;verticalAlign=top;labelPosition=center;verticalLabelPosition=bottom;html=1;aspect=fixed;" parent="bF_WzVQbSL983tnFGNi5-78" vertex="1">
          <mxGeometry x="153" y="311" width="40" height="40" as="geometry" />
        </mxCell>
        <mxCell id="bF_WzVQbSL983tnFGNi5-82" value="" style="dashed=0;html=1;shape=mxgraph.gmdl.plus;strokeColor=#737373;strokeWidth=2;shadow=0;sketch=0;html=1;labelPosition=center;verticalLabelPosition=bottom;align=center;verticalAlign=top;" parent="bF_WzVQbSL983tnFGNi5-81" vertex="1">
          <mxGeometry x="12" y="12" width="16" height="16" as="geometry" />
        </mxCell>
        <mxCell id="bF_WzVQbSL983tnFGNi5-83" value="" style="rounded=0;whiteSpace=wrap;html=1;" parent="bF_WzVQbSL983tnFGNi5-78" vertex="1">
          <mxGeometry x="8" y="75" width="185" height="33" as="geometry" />
        </mxCell>
        <mxCell id="bF_WzVQbSL983tnFGNi5-84" value="Title" style="text;html=1;align=center;verticalAlign=middle;whiteSpace=wrap;rounded=0;" parent="bF_WzVQbSL983tnFGNi5-78" vertex="1">
          <mxGeometry x="8" y="75" width="35" height="17.5" as="geometry" />
        </mxCell>
        <mxCell id="bF_WzVQbSL983tnFGNi5-85" value="Description preview" style="text;html=1;align=center;verticalAlign=middle;whiteSpace=wrap;rounded=0;" parent="bF_WzVQbSL983tnFGNi5-78" vertex="1">
          <mxGeometry x="8" y="89" width="116" height="17.5" as="geometry" />
        </mxCell>
        <mxCell id="bF_WzVQbSL983tnFGNi5-86" value="Date/Time" style="text;html=1;align=center;verticalAlign=middle;whiteSpace=wrap;rounded=0;" parent="bF_WzVQbSL983tnFGNi5-78" vertex="1">
          <mxGeometry x="145" y="78" width="35" height="17.5" as="geometry" />
        </mxCell>
        <mxCell id="bF_WzVQbSL983tnFGNi5-87" value="" style="shape=image;html=1;verticalAlign=top;verticalLabelPosition=bottom;labelBackgroundColor=#ffffff;imageAspect=0;aspect=fixed;image=https://cdn1.iconfinder.com/data/icons/ionicons-fill-vol-2/512/menu-128.png" parent="bF_WzVQbSL983tnFGNi5-78" vertex="1">
          <mxGeometry x="160.75" y="39.25" width="24.5" height="24.5" as="geometry" />
        </mxCell>
        <mxCell id="bF_WzVQbSL983tnFGNi5-88" value="" style="swimlane;container=1;shape=mxgraph.bootstrap.rrect;rSize=5;strokeColor=#999999;fillColor=#ffffff;fontStyle=0;childLayout=stackLayout;horizontal=1;startSize=0;horizontalStack=0;resizeParent=1;resizeParentMax=0;resizeLast=0;collapsible=0;marginBottom=0;whiteSpace=wrap;html=1;" parent="bF_WzVQbSL983tnFGNi5-78" vertex="1">
          <mxGeometry x="25" y="66" width="170" height="110" as="geometry" />
        </mxCell>
        <mxCell id="bF_WzVQbSL983tnFGNi5-89" value="" style="text;align=center;verticalAlign=middle;spacingLeft=10;spacingRight=10;overflow=hidden;points=[[0,0.5],[1,0.5]];portConstraint=eastwest;rotatable=0;whiteSpace=wrap;html=1;fontColor=inherit;" parent="bF_WzVQbSL983tnFGNi5-88" vertex="1">
          <mxGeometry width="170" height="10" as="geometry" />
        </mxCell>
        <mxCell id="bF_WzVQbSL983tnFGNi5-90" value="Tasks" style="text;align=left;verticalAlign=middle;spacingLeft=10;spacingRight=10;overflow=hidden;points=[[0,0.5],[1,0.5]];portConstraint=eastwest;rotatable=0;whiteSpace=wrap;html=1;fontColor=inherit;fontSize=14;fontStyle=0;" parent="bF_WzVQbSL983tnFGNi5-88" vertex="1">
          <mxGeometry y="10" width="170" height="30" as="geometry" />
        </mxCell>
        <mxCell id="bF_WzVQbSL983tnFGNi5-91" value="Reminders" style="text;align=left;verticalAlign=middle;spacingLeft=10;spacingRight=10;overflow=hidden;points=[[0,0.5],[1,0.5]];portConstraint=eastwest;rotatable=0;whiteSpace=wrap;html=1;fontColor=inherit;fontSize=14;fontStyle=0;" parent="bF_WzVQbSL983tnFGNi5-88" vertex="1">
          <mxGeometry y="40" width="170" height="30" as="geometry" />
        </mxCell>
        <mxCell id="bF_WzVQbSL983tnFGNi5-92" value="Sign Out" style="text;align=left;verticalAlign=middle;spacingLeft=10;spacingRight=10;overflow=hidden;points=[[0,0.5],[1,0.5]];portConstraint=eastwest;rotatable=0;whiteSpace=wrap;html=1;fontColor=inherit;fontSize=14;fontStyle=0;" parent="bF_WzVQbSL983tnFGNi5-88" vertex="1">
          <mxGeometry y="70" width="170" height="30" as="geometry" />
        </mxCell>
        <mxCell id="bF_WzVQbSL983tnFGNi5-93" value="" style="text;align=center;verticalAlign=middle;spacingLeft=10;spacingRight=10;overflow=hidden;points=[[0,0.5],[1,0.5]];portConstraint=eastwest;rotatable=0;whiteSpace=wrap;html=1;fontColor=inherit;" parent="bF_WzVQbSL983tnFGNi5-88" vertex="1">
          <mxGeometry y="100" width="170" height="10" as="geometry" />
        </mxCell>
        <mxCell id="bF_WzVQbSL983tnFGNi5-94" value="&lt;span style=&quot;color: rgba(0, 0, 0, 0); font-family: monospace; font-size: 0px; text-align: start;&quot;&gt;%3CmxGraphModel%3E%3Croot%3E%3CmxCell%20id%3D%220%22%2F%3E%3CmxCell%20id%3D%221%22%20parent%3D%220%22%2F%3E%3CmxCell%20id%3D%222%22%20value%3D%22%22%20style%3D%22group%22%20vertex%3D%221%22%20connectable%3D%220%22%20parent%3D%221%22%3E%3CmxGeometry%20x%3D%2253%22%20y%3D%22-101%22%20width%3D%22200%22%20height%3D%22390%22%20as%3D%22geometry%22%2F%3E%3C%2FmxCell%3E%3CmxCell%20id%3D%223%22%20value%3D%22%22%20style%3D%22verticalLabelPosition%3Dbottom%3BverticalAlign%3Dtop%3Bhtml%3D1%3Bshadow%3D0%3Bdashed%3D0%3BstrokeWidth%3D1%3Bshape%3Dmxgraph.android.phone2%3BstrokeColor%3D%23c0c0c0%3B%22%20vertex%3D%221%22%20parent%3D%222%22%3E%3CmxGeometry%20width%3D%22200%22%20height%3D%22390%22%20as%3D%22geometry%22%2F%3E%3C%2FmxCell%3E%3CmxCell%20id%3D%224%22%20value%3D%22%22%20style%3D%22sketch%3D0%3Baspect%3Dfixed%3BpointerEvents%3D1%3Bshadow%3D0%3Bdashed%3D0%3Bhtml%3D1%3BstrokeColor%3Dnone%3BlabelPosition%3Dcenter%3BverticalLabelPosition%3Dbottom%3BverticalAlign%3Dtop%3Balign%3Dcenter%3BfillColor%3D%2300188D%3Bshape%3Dmxgraph.mscae.enterprise.calendar%22%20vertex%3D%221%22%20parent%3D%222%22%3E%3CmxGeometry%20x%3D%2216%22%20y%3D%2242%22%20width%3D%2223.17%22%20height%3D%2219%22%20as%3D%22geometry%22%2F%3E%3C%2FmxCell%3E%3C%2Froot%3E%3C%2FmxGraphModel%3E&lt;/span&gt;" style="sketch=0;aspect=fixed;pointerEvents=1;shadow=0;dashed=0;html=1;strokeColor=none;labelPosition=center;verticalLabelPosition=bottom;verticalAlign=top;align=center;fillColor=#00188D;shape=mxgraph.mscae.enterprise.calendar" parent="bF_WzVQbSL983tnFGNi5-78" vertex="1">
          <mxGeometry x="19.83000000000004" y="42" width="23.17" height="19" as="geometry" />
        </mxCell>
        <mxCell id="bF_WzVQbSL983tnFGNi5-95" value="" style="group" parent="1" vertex="1" connectable="0">
          <mxGeometry x="1085" y="803" width="200" height="390" as="geometry" />
        </mxCell>
        <mxCell id="bF_WzVQbSL983tnFGNi5-96" value="" style="verticalLabelPosition=bottom;verticalAlign=top;html=1;shadow=0;dashed=0;strokeWidth=1;shape=mxgraph.android.phone2;strokeColor=#c0c0c0;" parent="bF_WzVQbSL983tnFGNi5-95" vertex="1">
          <mxGeometry width="200" height="390" as="geometry" />
        </mxCell>
        <mxCell id="bF_WzVQbSL983tnFGNi5-97" value="Tasks" style="rounded=0;whiteSpace=wrap;html=1;" parent="bF_WzVQbSL983tnFGNi5-95" vertex="1">
          <mxGeometry x="8" y="35" width="185" height="33" as="geometry" />
        </mxCell>
        <mxCell id="bF_WzVQbSL983tnFGNi5-98" value="" style="shape=ellipse;dashed=0;strokeColor=none;shadow=1;fontSize=13;align=center;verticalAlign=top;labelPosition=center;verticalLabelPosition=bottom;html=1;aspect=fixed;" parent="bF_WzVQbSL983tnFGNi5-95" vertex="1">
          <mxGeometry x="153" y="311" width="40" height="40" as="geometry" />
        </mxCell>
        <mxCell id="bF_WzVQbSL983tnFGNi5-99" value="" style="dashed=0;html=1;shape=mxgraph.gmdl.plus;strokeColor=#737373;strokeWidth=2;shadow=0;sketch=0;html=1;labelPosition=center;verticalLabelPosition=bottom;align=center;verticalAlign=top;" parent="bF_WzVQbSL983tnFGNi5-98" vertex="1">
          <mxGeometry x="12" y="12" width="16" height="16" as="geometry" />
        </mxCell>
        <mxCell id="bF_WzVQbSL983tnFGNi5-100" value="" style="shape=image;html=1;verticalAlign=top;verticalLabelPosition=bottom;labelBackgroundColor=#ffffff;imageAspect=0;aspect=fixed;image=https://cdn1.iconfinder.com/data/icons/ionicons-fill-vol-2/512/menu-128.png" parent="bF_WzVQbSL983tnFGNi5-95" vertex="1">
          <mxGeometry x="160.75" y="39.25" width="24.5" height="24.5" as="geometry" />
        </mxCell>
        <mxCell id="bF_WzVQbSL983tnFGNi5-101" value="" style="shape=image;html=1;verticalAlign=top;verticalLabelPosition=bottom;labelBackgroundColor=#ffffff;imageAspect=0;aspect=fixed;image=https://cdn3.iconfinder.com/data/icons/arrow-outline-8/32/left_2-128.png" parent="bF_WzVQbSL983tnFGNi5-95" vertex="1">
          <mxGeometry x="11" y="36" width="32" height="32" as="geometry" />
        </mxCell>
        <mxCell id="bF_WzVQbSL983tnFGNi5-102" value="" style="group" parent="bF_WzVQbSL983tnFGNi5-95" vertex="1" connectable="0">
          <mxGeometry x="8" y="75" width="185" height="33" as="geometry" />
        </mxCell>
        <mxCell id="bF_WzVQbSL983tnFGNi5-103" value="" style="rounded=0;whiteSpace=wrap;html=1;" parent="bF_WzVQbSL983tnFGNi5-102" vertex="1">
          <mxGeometry width="185" height="33" as="geometry" />
        </mxCell>
        <mxCell id="bF_WzVQbSL983tnFGNi5-104" value="Title" style="text;html=1;align=center;verticalAlign=middle;whiteSpace=wrap;rounded=0;" parent="bF_WzVQbSL983tnFGNi5-102" vertex="1">
          <mxGeometry x="29" y="0.5" width="58" height="29" as="geometry" />
        </mxCell>
        <mxCell id="bF_WzVQbSL983tnFGNi5-105" value="Date/Time" style="text;html=1;align=center;verticalAlign=middle;whiteSpace=wrap;rounded=0;" parent="bF_WzVQbSL983tnFGNi5-102" vertex="1">
          <mxGeometry x="137" y="6.25" width="35" height="17.5" as="geometry" />
        </mxCell>
        <mxCell id="bF_WzVQbSL983tnFGNi5-106" value="" style="verticalLabelPosition=bottom;verticalAlign=top;html=1;shape=mxgraph.basic.star" parent="bF_WzVQbSL983tnFGNi5-102" vertex="1">
          <mxGeometry x="10" y="4" width="23.16" height="22" as="geometry" />
        </mxCell>
        <mxCell id="bF_WzVQbSL983tnFGNi5-107" value="" style="group" parent="bF_WzVQbSL983tnFGNi5-95" vertex="1" connectable="0">
          <mxGeometry x="7.5" y="114" width="185" height="33" as="geometry" />
        </mxCell>
        <mxCell id="bF_WzVQbSL983tnFGNi5-108" value="" style="rounded=0;whiteSpace=wrap;html=1;" parent="bF_WzVQbSL983tnFGNi5-107" vertex="1">
          <mxGeometry width="185" height="33" as="geometry" />
        </mxCell>
        <mxCell id="bF_WzVQbSL983tnFGNi5-109" value="Title" style="text;html=1;align=center;verticalAlign=middle;whiteSpace=wrap;rounded=0;" parent="bF_WzVQbSL983tnFGNi5-107" vertex="1">
          <mxGeometry x="29" y="0.5" width="58" height="29" as="geometry" />
        </mxCell>
        <mxCell id="bF_WzVQbSL983tnFGNi5-110" value="Date/Time" style="text;html=1;align=center;verticalAlign=middle;whiteSpace=wrap;rounded=0;" parent="bF_WzVQbSL983tnFGNi5-107" vertex="1">
          <mxGeometry x="137" y="6.25" width="35" height="17.5" as="geometry" />
        </mxCell>
        <mxCell id="bF_WzVQbSL983tnFGNi5-111" value="" style="shape=image;html=1;verticalAlign=top;verticalLabelPosition=bottom;labelBackgroundColor=#ffffff;imageAspect=0;aspect=fixed;image=https://cdn2.iconfinder.com/data/icons/august/PNG/Star%20Gold.png" parent="bF_WzVQbSL983tnFGNi5-107" vertex="1">
          <mxGeometry x="7.5" y="2" width="29" height="29" as="geometry" />
        </mxCell>
        <mxCell id="bF_WzVQbSL983tnFGNi5-112" value="" style="group" parent="1" vertex="1" connectable="0">
          <mxGeometry x="776" y="805" width="200" height="390" as="geometry" />
        </mxCell>
        <mxCell id="bF_WzVQbSL983tnFGNi5-113" value="" style="verticalLabelPosition=bottom;verticalAlign=top;html=1;shadow=0;dashed=0;strokeWidth=1;shape=mxgraph.android.phone2;strokeColor=#c0c0c0;" parent="bF_WzVQbSL983tnFGNi5-112" vertex="1">
          <mxGeometry width="200" height="390" as="geometry" />
        </mxCell>
        <mxCell id="bF_WzVQbSL983tnFGNi5-114" value="Reminders" style="rounded=0;whiteSpace=wrap;html=1;" parent="bF_WzVQbSL983tnFGNi5-112" vertex="1">
          <mxGeometry x="8" y="35" width="185" height="33" as="geometry" />
        </mxCell>
        <mxCell id="bF_WzVQbSL983tnFGNi5-115" value="" style="shape=ellipse;dashed=0;strokeColor=none;shadow=1;fontSize=13;align=center;verticalAlign=top;labelPosition=center;verticalLabelPosition=bottom;html=1;aspect=fixed;" parent="bF_WzVQbSL983tnFGNi5-112" vertex="1">
          <mxGeometry x="153" y="311" width="40" height="40" as="geometry" />
        </mxCell>
        <mxCell id="bF_WzVQbSL983tnFGNi5-116" value="" style="dashed=0;html=1;shape=mxgraph.gmdl.plus;strokeColor=#737373;strokeWidth=2;shadow=0;sketch=0;html=1;labelPosition=center;verticalLabelPosition=bottom;align=center;verticalAlign=top;" parent="bF_WzVQbSL983tnFGNi5-115" vertex="1">
          <mxGeometry x="12" y="12" width="16" height="16" as="geometry" />
        </mxCell>
        <mxCell id="bF_WzVQbSL983tnFGNi5-117" value="" style="shape=image;html=1;verticalAlign=top;verticalLabelPosition=bottom;labelBackgroundColor=#ffffff;imageAspect=0;aspect=fixed;image=https://cdn1.iconfinder.com/data/icons/ionicons-fill-vol-2/512/menu-128.png" parent="bF_WzVQbSL983tnFGNi5-112" vertex="1">
          <mxGeometry x="160.75" y="39.25" width="24.5" height="24.5" as="geometry" />
        </mxCell>
        <mxCell id="bF_WzVQbSL983tnFGNi5-118" value="" style="shape=image;html=1;verticalAlign=top;verticalLabelPosition=bottom;labelBackgroundColor=#ffffff;imageAspect=0;aspect=fixed;image=https://cdn3.iconfinder.com/data/icons/arrow-outline-8/32/left_2-128.png" parent="bF_WzVQbSL983tnFGNi5-112" vertex="1">
          <mxGeometry x="11" y="36" width="32" height="32" as="geometry" />
        </mxCell>
        <mxCell id="bF_WzVQbSL983tnFGNi5-119" value="" style="group" parent="bF_WzVQbSL983tnFGNi5-112" vertex="1" connectable="0">
          <mxGeometry x="8" y="75" width="185" height="33" as="geometry" />
        </mxCell>
        <mxCell id="bF_WzVQbSL983tnFGNi5-120" value="" style="rounded=0;whiteSpace=wrap;html=1;" parent="bF_WzVQbSL983tnFGNi5-119" vertex="1">
          <mxGeometry width="185" height="33" as="geometry" />
        </mxCell>
        <mxCell id="bF_WzVQbSL983tnFGNi5-121" value="Title" style="text;html=1;align=center;verticalAlign=middle;whiteSpace=wrap;rounded=0;" parent="bF_WzVQbSL983tnFGNi5-119" vertex="1">
          <mxGeometry x="29" y="0.5" width="58" height="29" as="geometry" />
        </mxCell>
        <mxCell id="bF_WzVQbSL983tnFGNi5-122" value="Date/Time" style="text;html=1;align=center;verticalAlign=middle;whiteSpace=wrap;rounded=0;" parent="bF_WzVQbSL983tnFGNi5-119" vertex="1">
          <mxGeometry x="137" y="6.25" width="35" height="17.5" as="geometry" />
        </mxCell>
        <mxCell id="bF_WzVQbSL983tnFGNi5-123" value="" style="verticalLabelPosition=bottom;verticalAlign=top;html=1;shape=mxgraph.basic.star" parent="bF_WzVQbSL983tnFGNi5-119" vertex="1">
          <mxGeometry x="10" y="4" width="23.16" height="22" as="geometry" />
        </mxCell>
        <mxCell id="bF_WzVQbSL983tnFGNi5-124" value="" style="group" parent="bF_WzVQbSL983tnFGNi5-112" vertex="1" connectable="0">
          <mxGeometry x="7.5" y="114" width="185" height="33" as="geometry" />
        </mxCell>
        <mxCell id="bF_WzVQbSL983tnFGNi5-125" value="" style="rounded=0;whiteSpace=wrap;html=1;" parent="bF_WzVQbSL983tnFGNi5-124" vertex="1">
          <mxGeometry width="185" height="33" as="geometry" />
        </mxCell>
        <mxCell id="bF_WzVQbSL983tnFGNi5-126" value="Title" style="text;html=1;align=center;verticalAlign=middle;whiteSpace=wrap;rounded=0;" parent="bF_WzVQbSL983tnFGNi5-124" vertex="1">
          <mxGeometry x="29" y="0.5" width="58" height="29" as="geometry" />
        </mxCell>
        <mxCell id="bF_WzVQbSL983tnFGNi5-127" value="Date/Time" style="text;html=1;align=center;verticalAlign=middle;whiteSpace=wrap;rounded=0;" parent="bF_WzVQbSL983tnFGNi5-124" vertex="1">
          <mxGeometry x="137" y="6.25" width="35" height="17.5" as="geometry" />
        </mxCell>
        <mxCell id="bF_WzVQbSL983tnFGNi5-128" value="" style="shape=image;html=1;verticalAlign=top;verticalLabelPosition=bottom;labelBackgroundColor=#ffffff;imageAspect=0;aspect=fixed;image=https://cdn2.iconfinder.com/data/icons/august/PNG/Star%20Gold.png" parent="bF_WzVQbSL983tnFGNi5-124" vertex="1">
          <mxGeometry x="7.5" y="2" width="29" height="29" as="geometry" />
        </mxCell>
        <mxCell id="bF_WzVQbSL983tnFGNi5-129" value="" style="endArrow=classic;html=1;rounded=0;entryX=0.008;entryY=0.488;entryDx=0;entryDy=0;entryPerimeter=0;" parent="1" source="bF_WzVQbSL983tnFGNi5-62" target="bF_WzVQbSL983tnFGNi5-75" edge="1">
          <mxGeometry width="50" height="50" relative="1" as="geometry">
            <mxPoint x="860" y="785" as="sourcePoint" />
            <mxPoint x="910" y="735" as="targetPoint" />
          </mxGeometry>
        </mxCell>
        <mxCell id="bF_WzVQbSL983tnFGNi5-130" value="" style="endArrow=classic;html=1;rounded=0;exitX=0;exitY=0.5;exitDx=0;exitDy=0;exitPerimeter=0;entryX=0.991;entryY=0.079;entryDx=0;entryDy=0;entryPerimeter=0;" parent="1" source="bF_WzVQbSL983tnFGNi5-76" target="bF_WzVQbSL983tnFGNi5-9" edge="1">
          <mxGeometry width="50" height="50" relative="1" as="geometry">
            <mxPoint x="963" y="785" as="sourcePoint" />
            <mxPoint x="1013" y="735" as="targetPoint" />
          </mxGeometry>
        </mxCell>
        <mxCell id="bF_WzVQbSL983tnFGNi5-131" value="" style="endArrow=classic;html=1;rounded=0;exitX=1;exitY=0.75;exitDx=0;exitDy=0;entryX=0;entryY=0.356;entryDx=0;entryDy=0;entryPerimeter=0;" parent="1" source="bF_WzVQbSL983tnFGNi5-64" target="bF_WzVQbSL983tnFGNi5-75" edge="1">
          <mxGeometry width="50" height="50" relative="1" as="geometry">
            <mxPoint x="963" y="785" as="sourcePoint" />
            <mxPoint x="1013" y="735" as="targetPoint" />
          </mxGeometry>
        </mxCell>
        <mxCell id="bF_WzVQbSL983tnFGNi5-132" value="" style="endArrow=classic;html=1;rounded=0;entryX=0.013;entryY=0.784;entryDx=0;entryDy=0;entryPerimeter=0;" parent="1" source="bF_WzVQbSL983tnFGNi5-68" target="bF_WzVQbSL983tnFGNi5-134" edge="1">
          <mxGeometry width="50" height="50" relative="1" as="geometry">
            <mxPoint x="987" y="758" as="sourcePoint" />
            <mxPoint x="1074.1999999999998" y="599.3" as="targetPoint" />
          </mxGeometry>
        </mxCell>
        <mxCell id="bF_WzVQbSL983tnFGNi5-133" value="" style="group" parent="1" vertex="1" connectable="0">
          <mxGeometry x="1081" y="342" width="200" height="390" as="geometry" />
        </mxCell>
        <mxCell id="bF_WzVQbSL983tnFGNi5-134" value="" style="verticalLabelPosition=bottom;verticalAlign=top;html=1;shadow=0;dashed=0;strokeWidth=1;shape=mxgraph.android.phone2;strokeColor=#c0c0c0;" parent="bF_WzVQbSL983tnFGNi5-133" vertex="1">
          <mxGeometry width="200" height="390" as="geometry" />
        </mxCell>
        <mxCell id="bF_WzVQbSL983tnFGNi5-135" value="Create Note" style="rounded=0;whiteSpace=wrap;html=1;" parent="bF_WzVQbSL983tnFGNi5-133" vertex="1">
          <mxGeometry x="7.5" y="35" width="185" height="33" as="geometry" />
        </mxCell>
        <mxCell id="bF_WzVQbSL983tnFGNi5-136" value="Title" style="rounded=0;whiteSpace=wrap;html=1;" parent="bF_WzVQbSL983tnFGNi5-133" vertex="1">
          <mxGeometry x="16.25" y="79" width="167.5" height="29.88" as="geometry" />
        </mxCell>
        <mxCell id="bF_WzVQbSL983tnFGNi5-137" value="Description" style="rounded=0;whiteSpace=wrap;html=1;" parent="bF_WzVQbSL983tnFGNi5-133" vertex="1">
          <mxGeometry x="16.25" y="117" width="167.5" height="29.88" as="geometry" />
        </mxCell>
        <mxCell id="bF_WzVQbSL983tnFGNi5-138" value="" style="sketch=0;outlineConnect=0;fontColor=#232F3E;gradientColor=none;fillColor=#232F3D;strokeColor=none;dashed=0;verticalLabelPosition=bottom;verticalAlign=top;align=center;html=1;fontSize=12;fontStyle=0;aspect=fixed;pointerEvents=1;shape=mxgraph.aws4.camera2;" parent="bF_WzVQbSL983tnFGNi5-133" vertex="1">
          <mxGeometry x="26" y="235" width="20.13" height="16" as="geometry" />
        </mxCell>
        <mxCell id="bF_WzVQbSL983tnFGNi5-139" value="" style="sketch=0;html=1;aspect=fixed;strokeColor=none;shadow=0;align=center;fillColor=#2D9C5E;verticalAlign=top;labelPosition=center;verticalLabelPosition=bottom;shape=mxgraph.gcp2.check" parent="bF_WzVQbSL983tnFGNi5-133" vertex="1">
          <mxGeometry x="86" y="233" width="25" height="20" as="geometry" />
        </mxCell>
        <mxCell id="bF_WzVQbSL983tnFGNi5-140" value="" style="shape=mxgraph.mockup.markup.redX;fillColor=#ff0000;html=1;shadow=0;whiteSpace=wrap;strokeColor=none;" parent="bF_WzVQbSL983tnFGNi5-133" vertex="1">
          <mxGeometry x="144" y="235" width="30" height="15" as="geometry" />
        </mxCell>
        <mxCell id="bF_WzVQbSL983tnFGNi5-141" value="" style="shape=image;html=1;verticalAlign=top;verticalLabelPosition=bottom;labelBackgroundColor=#ffffff;imageAspect=0;aspect=fixed;image=https://cdn4.iconfinder.com/data/icons/evil-icons-user-interface/64/picture-128.png" parent="bF_WzVQbSL983tnFGNi5-133" vertex="1">
          <mxGeometry x="7.5" y="267" width="72" height="72" as="geometry" />
        </mxCell>
        <mxCell id="bF_WzVQbSL983tnFGNi5-142" value="" style="shape=image;html=1;verticalAlign=top;verticalLabelPosition=bottom;labelBackgroundColor=#ffffff;imageAspect=0;aspect=fixed;image=https://cdn4.iconfinder.com/data/icons/evil-icons-user-interface/64/picture-128.png" parent="bF_WzVQbSL983tnFGNi5-133" vertex="1">
          <mxGeometry x="64" y="267" width="72" height="72" as="geometry" />
        </mxCell>
        <mxCell id="bF_WzVQbSL983tnFGNi5-143" value="" style="shape=image;html=1;verticalAlign=top;verticalLabelPosition=bottom;labelBackgroundColor=#ffffff;imageAspect=0;aspect=fixed;image=https://cdn4.iconfinder.com/data/icons/evil-icons-user-interface/64/picture-128.png" parent="bF_WzVQbSL983tnFGNi5-133" vertex="1">
          <mxGeometry x="120.5" y="267" width="72" height="72" as="geometry" />
        </mxCell>
        <mxCell id="bF_WzVQbSL983tnFGNi5-144" value="" style="endArrow=classic;html=1;rounded=0;exitX=0.146;exitY=0.338;exitDx=0;exitDy=0;exitPerimeter=0;entryX=1.003;entryY=0.445;entryDx=0;entryDy=0;entryPerimeter=0;" parent="1" source="bF_WzVQbSL983tnFGNi5-139" target="bF_WzVQbSL983tnFGNi5-75" edge="1">
          <mxGeometry width="50" height="50" relative="1" as="geometry">
            <mxPoint x="954" y="760" as="sourcePoint" />
            <mxPoint x="1004" y="710" as="targetPoint" />
          </mxGeometry>
        </mxCell>
        <mxCell id="bF_WzVQbSL983tnFGNi5-145" value="" style="endArrow=classic;html=1;rounded=0;exitX=0.5;exitY=1;exitDx=0;exitDy=0;entryX=0.637;entryY=0.002;entryDx=0;entryDy=0;entryPerimeter=0;" parent="1" source="bF_WzVQbSL983tnFGNi5-73" target="bF_WzVQbSL983tnFGNi5-79" edge="1">
          <mxGeometry width="50" height="50" relative="1" as="geometry">
            <mxPoint x="842" y="776" as="sourcePoint" />
            <mxPoint x="892" y="726" as="targetPoint" />
          </mxGeometry>
        </mxCell>
        <mxCell id="bF_WzVQbSL983tnFGNi5-146" value="" style="endArrow=classic;html=1;rounded=0;exitX=0.512;exitY=0.5;exitDx=0;exitDy=0;exitPerimeter=0;entryX=0.009;entryY=0.315;entryDx=0;entryDy=0;entryPerimeter=0;" parent="1" source="bF_WzVQbSL983tnFGNi5-91" target="bF_WzVQbSL983tnFGNi5-113" edge="1">
          <mxGeometry width="50" height="50" relative="1" as="geometry">
            <mxPoint x="859" y="864" as="sourcePoint" />
            <mxPoint x="909" y="814" as="targetPoint" />
          </mxGeometry>
        </mxCell>
        <mxCell id="bF_WzVQbSL983tnFGNi5-147" style="edgeStyle=orthogonalEdgeStyle;rounded=0;orthogonalLoop=1;jettySize=auto;html=1;entryX=-0.007;entryY=0.25;entryDx=0;entryDy=0;entryPerimeter=0;exitX=0.353;exitY=0.433;exitDx=0;exitDy=0;exitPerimeter=0;" parent="1" source="bF_WzVQbSL983tnFGNi5-90" target="bF_WzVQbSL983tnFGNi5-96" edge="1">
          <mxGeometry relative="1" as="geometry">
            <Array as="points">
              <mxPoint x="545" y="898" />
              <mxPoint x="717" y="898" />
              <mxPoint x="717" y="784" />
              <mxPoint x="1016" y="784" />
              <mxPoint x="1016" y="900" />
            </Array>
          </mxGeometry>
        </mxCell>
        <mxCell id="bF_WzVQbSL983tnFGNi5-148" style="edgeStyle=orthogonalEdgeStyle;rounded=0;orthogonalLoop=1;jettySize=auto;html=1;entryX=1.008;entryY=0.087;entryDx=0;entryDy=0;entryPerimeter=0;exitX=0.437;exitY=0.375;exitDx=0;exitDy=0;exitPerimeter=0;" parent="1" source="bF_WzVQbSL983tnFGNi5-101" target="bF_WzVQbSL983tnFGNi5-79" edge="1">
          <mxGeometry relative="1" as="geometry">
            <Array as="points">
              <mxPoint x="1112" y="851" />
              <mxPoint x="1112" y="767" />
              <mxPoint x="662" y="767" />
            </Array>
          </mxGeometry>
        </mxCell>
        <mxCell id="bF_WzVQbSL983tnFGNi5-149" style="edgeStyle=orthogonalEdgeStyle;rounded=0;orthogonalLoop=1;jettySize=auto;html=1;entryX=0.994;entryY=0.778;entryDx=0;entryDy=0;entryPerimeter=0;" parent="1" source="bF_WzVQbSL983tnFGNi5-118" target="bF_WzVQbSL983tnFGNi5-79" edge="1">
          <mxGeometry relative="1" as="geometry">
            <Array as="points">
              <mxPoint x="743" y="857" />
              <mxPoint x="743" y="1110" />
            </Array>
          </mxGeometry>
        </mxCell>
      </root>
    </mxGraphModel>
  </diagram>
</mxfile>
